<svg width="49" height="49" viewBox="0 0 49 49" fill="none" xmlns="http://www.w3.org/2000/svg">
<g id="ep:setting">
<path id="Vector" d="M28.7446 3.0625C29.0688 3.06251 29.3846 3.16541 29.6466 3.35639C29.9086 3.54736 30.1032 3.81655 30.2024 4.12519L31.8867 9.359C32.5942 9.70506 33.271 10.094 33.9172 10.5319L39.2949 9.37431C39.612 9.30662 39.9424 9.34131 40.2385 9.4734C40.5346 9.60548 40.7811 9.82815 40.9426 10.1093L45.1872 17.4562C45.3493 17.7373 45.4179 18.0625 45.3832 18.385C45.3486 18.7076 45.2124 19.0107 44.9942 19.2509L41.3039 23.324C41.3577 24.105 41.3577 24.8888 41.3039 25.6699L44.9942 29.7491C45.2124 29.9893 45.3486 30.2924 45.3832 30.615C45.4179 30.9375 45.3493 31.2627 45.1872 31.5438L40.9426 38.8937C40.7807 39.1744 40.5339 39.3964 40.2379 39.5279C39.9418 39.6594 39.6117 39.6937 39.2949 39.6257L33.9172 38.4681C33.2741 38.9029 32.5942 39.2949 31.8898 39.641L30.2024 44.8748C30.1032 45.1835 29.9086 45.4526 29.6466 45.6436C29.3846 45.8346 29.0688 45.9375 28.7446 45.9375H20.2554C19.9312 45.9375 19.6154 45.8346 19.3534 45.6436C19.0914 45.4526 18.8968 45.1835 18.7976 44.8748L17.1163 39.6441C16.4108 39.2991 15.7302 38.9051 15.0797 38.465L9.70506 39.6257C9.38798 39.6934 9.0576 39.6587 8.76151 39.5266C8.46541 39.3945 8.21888 39.1719 8.05743 38.8907L3.81281 31.5438C3.65072 31.2627 3.58207 30.9375 3.61675 30.615C3.65142 30.2924 3.78764 29.9893 4.00575 29.7491L7.69606 25.6699C7.6426 24.8909 7.6426 24.1091 7.69606 23.3301L4.00575 19.2509C3.78764 19.0107 3.65142 18.7076 3.61675 18.385C3.58207 18.0625 3.65072 17.7373 3.81281 17.4562L8.05743 10.1062C8.21933 9.82564 8.46605 9.60362 8.76211 9.47209C9.05817 9.34057 9.38831 9.30634 9.70506 9.37431L15.0797 10.535C15.729 10.0971 16.4089 9.702 17.1163 9.35594L18.8007 4.12519C18.8996 3.81754 19.0932 3.54907 19.354 3.35818C19.6147 3.1673 19.9292 3.0638 20.2523 3.0625H28.7416H28.7446ZM27.6237 6.125H21.3762L19.6367 11.5364L18.4638 12.1091C17.8872 12.3913 17.3306 12.7126 16.7978 13.0708L15.7137 13.8057L10.1522 12.6053L7.02843 18.0197L10.8412 22.2399L10.7494 23.5384C10.7054 24.1787 10.7054 24.8213 10.7494 25.4616L10.8412 26.7601L7.02231 30.9803L10.1491 36.3947L15.7106 35.1973L16.7947 35.9293C17.3275 36.2874 17.8841 36.6087 18.4607 36.8909L19.6337 37.4636L21.3762 42.875H27.6299L29.3755 37.4605L30.5454 36.8909C31.1214 36.6094 31.677 36.288 32.2083 35.9293L33.2894 35.1973L38.8539 36.3947L41.9777 30.9803L38.1618 26.7601L38.2537 25.4616C38.2978 24.8203 38.2978 24.1767 38.2537 23.5353L38.1618 22.2368L41.9807 18.0197L38.8539 12.6053L33.2894 13.7996L32.2083 13.0708C31.6771 12.7119 31.1214 12.3905 30.5454 12.1091L29.3755 11.5395L27.6268 6.125H27.6237ZM24.5 15.3125C26.9367 15.3125 29.2736 16.2805 30.9965 18.0035C32.7195 19.7264 33.6875 22.0633 33.6875 24.5C33.6875 26.9367 32.7195 29.2736 30.9965 30.9965C29.2736 32.7195 26.9367 33.6875 24.5 33.6875C22.0633 33.6875 19.7264 32.7195 18.0035 30.9965C16.2805 29.2736 15.3125 26.9367 15.3125 24.5C15.3125 22.0633 16.2805 19.7264 18.0035 18.0035C19.7264 16.2805 22.0633 15.3125 24.5 15.3125ZM24.5 18.375C22.8755 18.375 21.3176 19.0203 20.169 20.169C19.0203 21.3176 18.375 22.8755 18.375 24.5C18.375 26.1245 19.0203 27.6824 20.169 28.831C21.3176 29.9797 22.8755 30.625 24.5 30.625C26.1244 30.625 27.6824 29.9797 28.831 28.831C29.9797 27.6824 30.625 26.1245 30.625 24.5C30.625 22.8755 29.9797 21.3176 28.831 20.169C27.6824 19.0203 26.1244 18.375 24.5 18.375Z" fill="black"/>
</g>
</svg>
