<svg width="51" height="48" viewBox="0 0 51 48" fill="none" xmlns="http://www.w3.org/2000/svg">
<g id="mingcute:game-2-line" clip-path="url(#clip0_80_2)">
<g id="Group">
<path id="Vector" fill-rule="evenodd" clip-rule="evenodd" d="M36.125 8.16663C37.7464 8.16663 39.0873 9.05271 40.069 9.98371C41.0911 10.9494 42.0283 12.2479 42.8613 13.6791C44.5336 16.5497 45.9893 20.3003 46.9519 24.0059C47.9081 27.6829 48.4373 31.5233 48.0994 34.5429C47.7594 37.5748 46.1338 40.8333 42.5 40.8333C39.3635 40.8333 36.8645 39.2816 34.8203 37.7075L34.0744 37.1175L33.0289 36.2702L32.0854 35.5188C29.92 33.8345 27.9969 32.6666 25.5 32.6666C23.0031 32.6666 21.08 33.8345 18.9146 35.5188L17.9711 36.2702L16.9256 37.1175L16.1819 37.7075C14.1334 39.2816 11.6344 40.8333 8.50002 40.8333C4.86414 40.8333 3.23852 37.5748 2.90064 34.5429C2.56489 31.5213 3.09189 27.6829 4.04814 24.0038C5.01077 20.3002 6.46639 16.5518 8.13877 13.6771C8.97177 12.2479 9.90889 10.9494 10.931 9.98167C11.9128 9.05271 13.2536 8.16663 14.875 8.16663C15.9694 8.16663 17.0383 8.41775 18.0901 8.71788L19.3481 9.08742C19.5585 9.14867 19.7668 9.20992 19.975 9.26504C21.8131 9.77138 23.6938 10.2083 25.5 10.2083C27.3063 10.2083 29.1869 9.77138 31.025 9.26504L32.9056 8.71992C33.9639 8.41979 35.0413 8.16663 36.125 8.16663ZM36.125 12.25C35.3111 12.25 34.4611 12.4868 33.6366 12.7461L32.6634 13.0544C32.5076 13.103 32.3511 13.1493 32.1938 13.1932C30.3131 13.7077 27.9438 14.2916 25.5 14.2916C23.0563 14.2916 20.6869 13.7077 18.8063 13.1932L18.3388 13.0544L17.3634 12.7461C16.5389 12.4848 15.6889 12.25 14.875 12.25C13.9868 12.4092 13.1899 13.4443 12.5885 14.4039L12.2528 14.9654L11.849 15.6718C10.3998 18.1585 9.06527 21.5518 8.17277 24.994C7.33339 28.2137 6.92539 31.2967 7.08052 33.5915L7.13577 34.1897L7.17827 34.549L7.24202 34.9737C7.38864 35.7924 7.70527 36.75 8.50002 36.75C10.2255 36.75 11.6663 35.9251 13.4576 34.5572L14.314 33.8875L15.929 32.589L16.66 32.0174C18.921 30.2962 21.7494 28.5833 25.5 28.5833C29.2506 28.5833 32.079 30.2983 34.34 32.0174L35.0731 32.589L36.6881 33.8875L37.5424 34.5572C39.3338 35.9251 40.7724 36.75 42.5 36.75C43.2225 36.75 43.5498 35.9598 43.7134 35.2003L43.7941 34.7553L43.8728 34.108C44.1341 31.7683 43.7304 28.4628 42.8294 24.9961C42.0091 21.8397 40.8191 18.7241 39.5101 16.3108L38.7473 14.9633L38.4115 14.406C37.8101 13.4443 37.0133 12.4092 36.125 12.25ZM18.0625 16.3333C19.4715 16.3333 20.8227 16.8711 21.819 17.8283C22.8153 18.7855 23.375 20.0837 23.375 21.4375C23.375 22.7912 22.8153 24.0894 21.819 25.0466C20.8227 26.0039 19.4715 26.5416 18.0625 26.5416C16.6536 26.5416 15.3023 26.0039 14.306 25.0466C13.3097 24.0894 12.75 22.7912 12.75 21.4375C12.75 20.0837 13.3097 18.7855 14.306 17.8283C15.3023 16.8711 16.6536 16.3333 18.0625 16.3333ZM32.9375 16.3333C33.458 16.3334 33.9604 16.517 34.3493 16.8493C34.7383 17.1816 34.9867 17.6394 35.0476 18.1361L35.0625 18.375V19.3958H36.125C36.6666 19.3964 37.1876 19.5956 37.5814 19.9529C37.9753 20.3101 38.2123 20.7983 38.244 21.3178C38.2757 21.8373 38.0998 22.3488 37.7522 22.7479C37.4046 23.1469 36.9115 23.4034 36.3736 23.4648L36.125 23.4791H35.0625V24.5C35.0619 25.0203 34.8545 25.5209 34.4827 25.8993C34.1109 26.2776 33.6027 26.5054 33.0621 26.5359C32.5214 26.5663 31.989 26.3973 31.5736 26.0633C31.1583 25.7293 30.8914 25.2556 30.8274 24.7388L30.8125 24.5V23.4791H29.75C29.2084 23.4785 28.6874 23.2793 28.2936 22.9221C27.8998 22.5648 27.6628 22.0766 27.631 21.5571C27.5993 21.0376 27.7752 20.5261 28.1228 20.1271C28.4705 19.728 28.9636 19.4715 29.5014 19.4101L29.75 19.3958H30.8125V18.375C30.8125 17.8335 31.0364 17.3142 31.4349 16.9313C31.8334 16.5484 32.3739 16.3333 32.9375 16.3333ZM18.0625 20.4166C17.7807 20.4166 17.5105 20.5242 17.3112 20.7156C17.112 20.9071 17 21.1667 17 21.4375C17 21.7082 17.112 21.9679 17.3112 22.1593C17.5105 22.3507 17.7807 22.4583 18.0625 22.4583C18.3443 22.4583 18.6146 22.3507 18.8138 22.1593C19.0131 21.9679 19.125 21.7082 19.125 21.4375C19.125 21.1667 19.0131 20.9071 18.8138 20.7156C18.6146 20.5242 18.3443 20.4166 18.0625 20.4166Z" fill="black"/>
</g>
</g>
<defs>
<clipPath id="clip0_80_2">
<rect width="51" height="49" fill="white"/>
</clipPath>
</defs>
</svg>
