<svg width="49" height="49" viewBox="0 0 49 49" fill="none" xmlns="http://www.w3.org/2000/svg">
<g id="ion:play">
<path id="Vector" d="M12.7285 42.1094C12.1409 42.1083 11.5637 41.9543 11.0537 41.6625C9.90523 41.0117 9.19128 39.7484 9.19128 38.377V10.6231C9.19128 9.24784 9.90523 7.98839 11.0537 7.33761C11.5758 7.03752 12.169 6.88319 12.7712 6.89077C13.3734 6.89834 13.9625 7.06754 14.477 7.38067L38.197 21.5792C38.6913 21.8892 39.0989 22.3196 39.3813 22.8302C39.6638 23.3407 39.812 23.9146 39.812 24.4981C39.812 25.0816 39.6638 25.6556 39.3813 26.1661C39.0989 26.6767 38.6913 27.1071 38.197 27.4171L14.4731 41.6194C13.9467 41.9377 13.3437 42.1071 12.7285 42.1094Z" fill="black"/>
</g>
</svg>
