<svg width="49" height="49" viewBox="0 0 49 49" fill="none" xmlns="http://www.w3.org/2000/svg">
<g id="iconamoon:like">
<g id="Group">
<path id="Vector" d="M30.625 20.4167L28.6119 20.0818C28.5633 20.3742 28.5789 20.6736 28.6577 20.9593C28.7365 21.245 28.8765 21.5102 29.0681 21.7363C29.2596 21.9624 29.4981 22.1442 29.767 22.2689C30.0358 22.3935 30.3286 22.4582 30.625 22.4583V20.4167ZM8.16667 20.4167V18.375C7.62518 18.375 7.10588 18.5901 6.72299 18.973C6.3401 19.3559 6.125 19.8752 6.125 20.4167H8.16667ZM12.25 42.875H35.4433V38.7917H12.25V42.875ZM37.8933 18.375H30.625V22.4583H37.8933V18.375ZM32.6401 20.7515L34.2837 10.88L30.2575 10.2083L28.6119 20.0818L32.6401 20.7515ZM30.2575 6.125H29.8206V10.2083H30.2575V6.125ZM23.0239 9.76121L17.8891 17.4665L21.2864 19.7327L26.4233 12.0275L23.0239 9.76121ZM16.1904 18.375H8.16667V22.4583H16.1904V18.375ZM6.125 20.4167V36.75H10.2083V20.4167H6.125ZM41.4499 37.9505L43.8999 25.7005L39.8983 24.9002L37.4482 37.1502L41.4499 37.9505ZM17.8891 17.4665C17.7026 17.746 17.45 17.9752 17.1536 18.1337C16.8573 18.2922 16.5265 18.3751 16.1904 18.375V22.4583C17.1987 22.4583 18.1914 22.2093 19.0804 21.7334C19.9694 21.2576 20.7271 20.5697 21.2864 19.7307L17.8891 17.4644V17.4665ZM34.2837 10.88C34.3812 10.2952 34.3502 9.6961 34.1928 9.12443C34.0354 8.55276 33.7554 8.02223 33.3723 7.56972C32.9891 7.1172 32.512 6.75356 31.9741 6.50407C31.4362 6.25458 30.8504 6.12522 30.2575 6.125V10.2083L34.2837 10.88ZM37.8933 22.4583C38.1954 22.4582 38.4938 22.5251 38.7669 22.6543C39.0401 22.7835 39.2811 22.9716 39.4727 23.2052C39.6643 23.4388 39.8017 23.712 39.8749 24.0051C39.9482 24.2982 39.9575 24.6039 39.8983 24.9002L43.8999 25.7005C44.0775 24.8121 44.0558 23.8953 43.8363 23.0163C43.6168 22.1373 43.2051 21.3179 42.6307 20.6172C42.0564 19.9165 41.3338 19.3519 40.5149 18.9642C39.696 18.5765 38.8014 18.3752 37.8954 18.375V22.4583H37.8933ZM35.4433 42.875C36.8595 42.8751 38.2319 42.3845 39.327 41.4866C40.4222 40.5888 41.1724 39.3392 41.4499 37.9505L37.4482 37.1502C37.3556 37.6135 37.1052 38.0304 36.7396 38.3297C36.374 38.6291 35.9158 38.7923 35.4433 38.7917V42.875ZM29.8206 6.125C28.4759 6.12469 27.1519 6.45643 25.9662 7.09076C24.7805 7.72509 23.7698 8.64239 23.0239 9.76121L26.4233 12.0275C26.796 11.468 27.3012 11.0092 27.8938 10.6919C28.4865 10.3746 29.1483 10.2085 29.8206 10.2083V6.125ZM12.25 38.7917C11.7085 38.7917 11.1892 38.5766 10.8063 38.1937C10.4234 37.8108 10.2083 37.2915 10.2083 36.75H6.125C6.125 38.3745 6.77031 39.9324 7.91897 41.081C9.06763 42.2297 10.6255 42.875 12.25 42.875V38.7917Z" fill="black"/>
<path id="Vector_2" d="M16.3334 20.4166V40.8333" stroke="black" stroke-width="2"/>
</g>
</g>
</svg>
